<svg width="29" height="29" viewBox="0 0 29 29" fill="none" xmlns="http://www.w3.org/2000/svg">
<rect x="10" y="4" width="9" height="20" fill="#3B5998"/>
<path d="M14.137 0C6.32899 0 0 6.33 0 14.136C0 21.944 6.32899 28.274 14.137 28.274C21.946 28.274 28.274 21.944 28.274 14.136C28.274 6.33 21.946 0 14.137 0ZM18.239 8.38H16.255C15.862 8.38 15.465 8.79099 15.465 9.09599V11.136H18.235C18.124 12.7 17.896 14.131 17.896 14.131H15.452V22.998H11.809V14.131H10.037V11.147H11.809V8.707C11.809 8.26 11.719 5.274 15.541 5.274H18.239V8.38Z" fill="white"/>
</svg>
