<svg width="29" height="29" viewBox="0 0 29 29" fill="none" xmlns="http://www.w3.org/2000/svg">
<rect x="6" y="6" width="17" height="16" fill="#0073A5"/>
<path d="M11.6423 12.7388H9.61133V18.8468H11.6423V12.7388Z" fill="white"/>
<path d="M10.6402 9.79492C9.94521 9.79492 9.49121 10.2519 9.49121 10.8499C9.49121 11.4369 9.93322 11.9059 10.6132 11.9059H10.6272C11.3352 11.9059 11.7752 11.4369 11.7752 10.8499C11.7622 10.2519 11.3352 9.79492 10.6402 9.79492Z" fill="white"/>
<path d="M16.6236 12.5962C15.5436 12.5962 15.0616 13.1912 14.7936 13.6082V13.6252H14.7816C14.7846 13.6202 14.7896 13.6132 14.7936 13.6082V12.7392H12.7656C12.7906 13.3122 12.7656 18.8462 12.7656 18.8462H14.7936V15.4352C14.7936 15.2532 14.8066 15.0722 14.8616 14.9402C15.0076 14.5752 15.3416 14.1982 15.9036 14.1982C16.6366 14.1982 16.9306 14.7582 16.9306 15.5782V18.8462H18.9606V15.3462C18.9616 13.4692 17.9596 12.5962 16.6236 12.5962Z" fill="white"/>
<path d="M14.288 0C6.39599 0 0 6.39599 0 14.287C0 22.178 6.39599 28.575 14.288 28.575C22.179 28.575 28.575 22.179 28.575 14.287C28.575 6.39599 22.179 0 14.288 0ZM21.008 20.081C21.008 20.616 20.563 21.05 20.015 21.05H8.561C8.011 21.05 7.56799 20.616 7.56799 20.081V8.495C7.56799 7.96 8.011 7.526 8.561 7.526H20.014C20.562 7.526 21.007 7.96 21.007 8.495V20.081H21.008Z" fill="white"/>
</svg>
